<svg class="icon" viewBox="0 0 1024 1024" xmlns="http://www.w3.org/2000/svg" width="64" height="64"><defs><style/></defs><path d="M890.824 270.933h-757.64c-38.087 0-68.88-30.89-68.88-68.873 0-38.092 30.793-68.88 68.88-68.88h757.64c37.987 0 68.873 30.788 68.873 68.88 0 37.982-30.887 68.873-68.873 68.873zm0 309.944h-757.64c-38.087 0-68.88-30.89-68.88-68.877 0-38.087 30.793-68.877 68.88-68.877h757.64c37.987 0 68.873 30.79 68.873 68.877 0 37.986-30.887 68.877-68.873 68.877zm0 309.943h-757.64c-38.087 0-68.88-30.89-68.88-68.873 0-38.091 30.793-68.88 68.88-68.88h757.64c37.987 0 68.873 30.789 68.873 68.88 0 37.983-30.887 68.873-68.873 68.873z"/></svg>