<svg class="icon" viewBox="0 0 1024 1024" xmlns="http://www.w3.org/2000/svg" width="64" height="64"><defs><style/></defs><path d="M1021.594 836.506L702.362 480.922l318.668-295.885c1.485 4.3 2.868 8.653 2.868 13.312V825.6c0 3.891-1.332 7.322-2.304 10.906zM39.168 155.187c2.918-.512 5.478-1.638 8.397-1.638h928.973c2.918 0 5.53 1.126 8.396 1.638L512.051 572.416 39.168 155.187zm-36.71 681.37C1.536 832.973.102 829.542.102 825.6V198.349c0-4.762 1.485-9.063 2.919-13.363l318.822 295.936L2.458 836.557zm494.387-217.754c4.403 3.533 9.83 5.223 15.206 5.223 5.427 0 10.752-1.69 15.104-5.223l138.599-109.056 322.355 358.451c-3.789.922-7.475 2.253-11.571 2.253H47.565c-4.045 0-7.731-1.331-11.469-2.253L358.4 509.748l138.445 109.055z"/></svg>