<svg class="icon" viewBox="0 0 1024 1024" xmlns="http://www.w3.org/2000/svg" width="64" height="64"><defs><style/></defs><path d="M505.15 664.41c81.782 0 147.069-67.335 147.069-151.303 0-83.304-66.394-151.275-147.069-151.275S358.11 429.83 358.11 513.107c0 83.304 66.366 151.303 147.04 151.303zm0 55.351c-111.533 0-202.392-93.073-202.392-206.654 0-113.553 90.86-206.627 202.392-206.627 111.533 0 202.42 93.074 202.42 206.627 0 114.162-89.669 206.654-202.42 206.654z"/><path d="M911.014 406.86c15.748-17.38 20.646-43.977 12.15-66.422-12.897-33.736-30.554-65.452-59.558-110.066-12.565-17.546-36.228-26.209-58.728-21.365-37.971 8.662-76.551 2.435-110.841-17.298a152.991 152.991 0 0 1-70.296-89.226c-7.196-23.303-26.154-39.66-48.571-43.312a492.489 492.489 0 0 0-121.496-.139c-23.47 3.792-42.427 20.148-49.9 44.337-13.118 38.054-37.168 69.41-70.02 88.34-34.29 19.733-72.87 25.96-110.508 17.38a61.883 61.883 0 0 0-61.385 22.058 430.301 430.301 0 0 0-60.693 107.465 66.145 66.145 0 0 0 12.454 66.837c52.861 60.61 52.861 153.323-.36 212.161-15.72 17.353-20.618 43.95-12.121 66.394 13.644 35.702 33.653 70.546 60.61 107.382 14.612 18.681 37.168 27.04 59.585 22.224a153.738 153.738 0 0 1 180.971 106.55c7.196 23.331 26.154 39.688 49.844 43.507 19.014 3.238 40.13 4.982 60.001 4.982 16.744 0 33.848-1.052 60.25-3.238 23.441-3.792 42.4-20.148 49.872-44.31 13.118-38.08 37.168-69.437 70.02-88.34 34.29-19.76 72.87-25.96 110.84-17.325 21.117 4.788 45.112-3.985 59.31-22.14a430.301 430.301 0 0 0 60.692-107.465 66.145 66.145 0 0 0-12.454-66.837c-52.86-60.61-52.86-153.323.332-212.134zm41.015 175.353c29.78 32.851 38.746 81.422 22.833 123.323a485.985 485.985 0 0 1-68.691 121.69c-27.4 35.065-73.12 51.781-115.325 42.178-24.16-5.508-48.543-1.578-70.905 11.319-20.618 11.873-36.366 32.38-45.056 57.538-13.395 43.534-49.512 74.669-95.73 82.058-29.917 2.546-48.239 3.681-67.003 3.681-22.943 0-47.187-1.993-69.078-5.729a117.29 117.29 0 0 1-93.738-82.03 98.498 98.498 0 0 0-116.182-68.553c-43.451 9.354-87.455-6.947-115.519-42.925-30.194-41.237-52.611-80.26-68.22-121.054-15.886-41.873-6.919-90.444 22.832-123.24 34.207-37.86 34.207-99.023 0-138.24-29.751-32.823-38.69-81.421-22.777-123.322a485.985 485.985 0 0 1 68.691-121.69 117.4 117.4 0 0 1 117.068-42.178c24.189 5.508 48.544 1.578 70.933-11.292 20.59-11.9 36.338-32.38 45.028-57.565a117.483 117.483 0 0 1 94.54-81.92 549.971 549.971 0 0 1 137.244.11c44.143 7.141 80.26 38.276 93.82 82.336a97.972 97.972 0 0 0 44.89 57.012c22.363 12.897 46.745 16.827 71.21 11.264 44.005-9.493 90.085 7.362 116.404 44.17 31.661 48.626 50.979 83.332 65.592 121.607 15.885 41.846 6.918 90.417-22.833 123.24-34.207 37.833-34.207 98.996 0 138.212z"/></svg>